<svg xmlns="http://www.w3.org/2000/svg" viewBox="0 0 543 543"><circle cx="271.5" cy="271.5" r="271.5" style="fill:#0EF6BE"/><path d="M384.27,262.4q-12,20.84-29.66,29.07a271.31,271.31,0,0,1-38.77,14.39,297.29,297.29,0,0,1-38.76,8.81q-17.62,2.64-29.66,10.57t-12,20.85q0,12.92,10,20.26t25.25,7.35q15.25,0,25.25-6.46a82.56,82.56,0,0,0,7.64-5.88q4.1-3.53,11.45-8.81t17.92-5.28q16.42,0,30.24,20.55t13.81,29.37q0,8.81-14.69,22.32l-2.35,1.76-5.28,4.7q-5.28,4.11-18.79,10.57a134.7,134.7,0,0,1-30,10v32.89a158.9,158.9,0,0,1-1.17,22.32c-.79,5.08-3.81,9.88-9.1,14.39s-13.22,6.75-23.79,6.75q-25.26,0-31.12-14.1-3.53-8.8-3.53-28.77V447.12q-39.36-8.24-61.67-36.42t-22.32-63.43q0-35.25,16.45-58.15t39.93-32.3a334.14,334.14,0,0,1,47-15q23.49-5.59,39.94-12.63t16.44-20q0-35.82-43.46-35.82-22.91,0-41.11,22.31-23.51,23.49-36.71,23.5t-25-11.16q-20-19.38-20-31.13T159,149.33l7.64-10q7.62-9.4,27-21.73A133.26,133.26,0,0,1,237.14,100V63.58q0-19.95,4.11-29.95a17.7,17.7,0,0,1,10.28-10.57q7.34-2.94,19.68-2.94t19.67,2.94Q298.21,26,302,34.22T305.85,63v37.6a126.79,126.79,0,0,1,64,36.41q26.43,27.6,26.43,73.42Q396.31,241.55,384.27,262.4Z" style="fill:#1E2528"/></svg>